<?xml version="1.0" standalone="no"?>
<!DOCTYPE svg PUBLIC "-//W3C//DTD SVG 20010904//EN"
 "http://www.w3.org/TR/2001/REC-SVG-20010904/DTD/svg10.dtd">
<svg version="1.0" xmlns="http://www.w3.org/2000/svg"
 width="102.000000pt" height="85.000000pt" viewBox="0 0 102.000000 85.000000"
 preserveAspectRatio="xMidYMid meet">

<g transform="translate(0.000000,85.000000) scale(0.100000,-0.100000)"
fill="#000000" stroke="none">
<path d="M665 641 c-21 -4 -30 -12 -30 -26 0 -12 -7 -20 -18 -21 -12 -1 -13
-1 -2 3 16 5 21 23 7 23 -11 0 -52 -43 -52 -54 0 -5 9 -6 20 -3 10 3 21 0 24
-7 3 -7 9 -5 16 7 14 22 40 22 40 0 0 -22 13 -7 30 35 15 39 6 51 -35 43z"/>
<path d="M310 626 c0 -22 52 -74 57 -58 3 6 11 12 19 12 8 0 14 4 14 10 0 5
-7 7 -15 4 -14 -6 -20 11 -16 39 0 4 -4 7 -10 7 -6 0 -8 -8 -5 -17 6 -17 5
-17 -8 0 -16 21 -36 22 -36 3z"/>
<path d="M554 453 c-3 -13 -10 -23 -15 -23 -5 0 -3 -13 6 -30 14 -26 18 -28
35 -18 13 9 20 24 20 45 0 30 -19 49 -21 21 0 -7 -4 -4 -9 7 -9 19 -9 19 -16
-2z"/>
<path d="M460 450 c0 -5 4 -10 9 -10 6 0 13 5 16 10 3 6 -1 10 -9 10 -9 0 -16
-4 -16 -10z"/>
<path d="M383 423 c-7 -3 -13 -12 -13 -21 0 -11 3 -13 8 -6 4 6 14 13 22 16 7
2 10 7 5 10 -6 3 -16 3 -22 1z"/>
<path d="M370 374 c0 -9 28 -34 38 -34 6 0 8 9 5 20 -5 17 -43 30 -43 14z"/>
<path d="M610 371 c0 -11 26 -22 34 -14 12 12 5 23 -14 23 -11 0 -20 -4 -20
-9z"/>
<path d="M17 243 c-10 -10 -8 -61 2 -67 5 -4 12 0 15 6 5 10 7 10 12 1 10 -23
19 -14 20 20 2 38 -27 62 -49 40z m33 -23 c0 -5 -4 -10 -10 -10 -5 0 -10 5
-10 10 0 6 5 10 10 10 6 0 10 -4 10 -10z"/>
<path d="M112 238 c-6 -7 -14 -27 -18 -43 -7 -27 -6 -29 9 -16 14 11 20 11 34
0 15 -13 16 -11 9 21 -8 42 -19 55 -34 38z m18 -28 c0 -5 -5 -10 -11 -10 -5 0
-7 5 -4 10 3 6 8 10 11 10 2 0 4 -4 4 -10z"/>
<path d="M177 243 c-8 -7 -10 -73 -3 -73 3 0 18 12 33 26 27 25 27 26 8 40
-21 16 -29 17 -38 7z m33 -23 c0 -5 -4 -10 -10 -10 -5 0 -10 5 -10 10 0 6 5
10 10 10 6 0 10 -4 10 -10z"/>
<path d="M290 235 c0 -8 -7 -15 -15 -15 -8 0 -15 5 -15 10 0 6 -4 10 -10 10
-5 0 -10 -16 -10 -35 0 -19 5 -35 10 -35 6 0 10 7 10 15 0 21 28 19 33 -2 3
-10 5 1 6 25 0 23 -1 42 -4 42 -3 0 -5 -7 -5 -15z"/>
<path d="M334 214 c-16 -39 -13 -54 9 -36 10 9 16 9 25 0 6 -6 14 -9 17 -6 7
7 -21 78 -30 78 -3 0 -13 -16 -21 -36z"/>
<path d="M410 210 c0 -33 3 -40 20 -40 25 0 27 20 3 21 -16 0 -15 1 2 8 19 8
19 8 0 19 -18 10 -19 11 -2 12 10 0 15 5 12 10 -3 6 -13 10 -21 10 -10 0 -14
-12 -14 -40z"/>
<path d="M472 213 c-2 -37 1 -43 18 -43 11 0 20 5 20 10 0 6 -6 10 -14 10 -9
0 -16 13 -19 33 -3 28 -4 26 -5 -10z"/>
<path d="M747 243 c-4 -3 -7 -21 -7 -40 0 -26 4 -33 20 -33 11 0 20 5 20 10 0
6 -6 10 -12 10 -9 0 -8 4 2 10 13 9 13 11 0 20 -10 6 -11 10 -2 10 6 0 12 5
12 10 0 11 -23 14 -33 3z"/>
<path d="M881 229 c-8 -21 -10 -22 -16 -6 -4 9 -11 17 -16 17 -5 0 -9 -8 -9
-17 -1 -17 -1 -17 -14 0 -19 25 -27 21 -20 -10 9 -39 20 -48 39 -33 10 8 15 9
15 1 0 -6 6 -11 14 -11 8 0 17 15 21 36 8 43 -1 57 -14 23z"/>
<path d="M920 211 c0 -23 5 -41 10 -41 6 0 10 15 10 34 0 19 -4 38 -10 41 -6
4 -10 -10 -10 -34z"/>
<path d="M963 243 c-20 -8 -15 -29 10 -41 l22 -11 -23 0 c-27 -1 -20 -21 8
-21 30 0 35 21 10 42 -18 14 -19 18 -6 18 10 0 14 5 11 10 -7 11 -13 11 -32 3z"/>
<path d="M520 205 c0 -28 4 -35 20 -35 11 0 20 5 20 10 0 6 -4 10 -10 10 -5 0
-10 11 -10 25 0 14 -4 25 -10 25 -5 0 -10 -16 -10 -35z"/>
<path d="M590 221 c-5 -11 -10 -27 -10 -37 0 -13 3 -14 15 -4 12 10 18 10 30
0 18 -15 19 -3 5 34 -11 31 -25 33 -40 7z"/>
<path d="M691 208 c-1 -33 2 -38 22 -38 20 1 20 2 5 13 -9 7 -18 24 -21 37 -3
18 -5 15 -6 -12z"/>
<path d="M157 133 c-11 -10 -8 -51 3 -58 6 -3 10 1 10 9 0 9 6 16 13 16 8 0 7
4 -3 10 -13 8 -12 10 3 10 9 0 17 5 17 10 0 11 -33 14 -43 3z"/>
<path d="M226 124 c-20 -19 -20 -28 -1 -44 33 -27 74 17 43 48 -16 16 -23 15
-42 -4z m34 -19 c0 -8 -7 -15 -15 -15 -8 0 -15 7 -15 15 0 8 7 15 15 15 8 0
15 -7 15 -15z"/>
<path d="M302 109 c2 -26 8 -34 22 -34 25 0 41 27 31 51 -8 17 -9 16 -13 -8
-4 -32 -22 -38 -22 -9 0 11 -5 23 -11 26 -7 5 -9 -5 -7 -26z"/>
<path d="M380 105 c1 -37 2 -39 15 -21 13 17 15 17 21 3 11 -30 24 -18 24 21
-1 32 -2 35 -14 20 -12 -16 -14 -16 -29 0 -16 15 -17 14 -17 -23z"/>
<path d="M467 133 c-11 -10 -8 -51 3 -58 20 -12 50 6 50 30 0 27 -35 46 -53
28z m41 -31 c2 -7 -3 -12 -12 -12 -9 0 -16 7 -16 16 0 17 22 14 28 -4z"/>
<path d="M552 115 c-17 -37 -15 -40 18 -40 33 0 34 2 20 39 -12 33 -24 33 -38
1z"/>
<path d="M610 130 c0 -5 4 -10 9 -10 5 0 12 -12 14 -27 l4 -28 2 28 c0 15 6
27 11 27 6 0 10 5 10 10 0 6 -11 10 -25 10 -14 0 -25 -4 -25 -10z"/>
<path d="M680 106 c0 -20 5 -36 10 -36 6 0 10 13 10 29 0 17 -4 33 -10 36 -6
4 -10 -8 -10 -29z"/>
<path d="M732 131 c-8 -4 -12 -19 -10 -32 2 -18 9 -24 28 -24 19 0 26 6 28 24
5 32 -20 49 -46 32z m33 -20 c7 -12 -12 -24 -25 -16 -11 7 -4 25 10 25 5 0 11
-4 15 -9z"/>
<path d="M807 134 c-10 -11 -9 -52 3 -59 6 -3 10 2 10 11 0 16 1 16 20 -1 20
-18 20 -17 19 21 -1 21 -3 31 -6 22 -6 -22 -12 -23 -27 -2 -6 8 -15 12 -19 8z"/>
</g>
</svg>
